REM DIRINDEX 1\2\3,1\2\4,1\2\5,1\2\6
REM DIRNAME folder01,folder02,folder03,folder04,folder05,folder06
TITLE ""
FILE "144 144.mp3" MP3
  TRACK 01 AUDIO
    TITLE "0:"
    INDEX 01 00:00:00
  TRACK 02 AUDIO
    TITLE "3:cjc157_5385"
    INDEX 01 00:00:11
  TRACK 03 AUDIO
    TITLE "0:"
    INDEX 01 00:01:46
  TRACK 04 AUDIO
    TITLE "4:cjc157_5386"
    INDEX 01 00:02:16
  TRACK 05 AUDIO
    TITLE "0:"
    INDEX 01 00:03:27
  TRACK 06 AUDIO
    TITLE "5:cjc157_5387"
    INDEX 01 00:03:72
  TRACK 07 AUDIO
    TITLE "0:"
    INDEX 01 00:05:52
  TRACK 08 AUDIO
    TITLE "3:cjc157_5388"
    INDEX 01 00:06:22
  TRACK 09 AUDIO
    TITLE "0:"
    INDEX 01 00:07:51
  TRACK 10 AUDIO
    TITLE "4:cjc157_5389"
    INDEX 01 00:08:21
  TRACK 11 AUDIO
    TITLE "0:"
    INDEX 01 00:09:53
  TRACK 12 AUDIO
    TITLE "5:cjc157_5390"
    INDEX 01 00:10:21
  TRACK 13 AUDIO
    TITLE "0:"
    INDEX 01 00:12:46
  TRACK 14 AUDIO
    TITLE "5:cjc157_5391"
    INDEX 01 00:13:18
  TRACK 15 AUDIO
    TITLE "0:"
    INDEX 01 00:14:41
  TRACK 16 AUDIO
    TITLE "3:cjc157_5392"
    INDEX 01 00:15:11
  TRACK 17 AUDIO
    TITLE "0:"
    INDEX 01 00:16:32
  TRACK 18 AUDIO
    TITLE "4:cjc157_5393"
    INDEX 01 00:17:04
  TRACK 19 AUDIO
    TITLE "0:"
    INDEX 01 00:18:35
  TRACK 20 AUDIO
    TITLE "5:cjc157_5394"
    INDEX 01 00:19:03
  TRACK 21 AUDIO
    TITLE "0:"
    INDEX 01 00:21:09
  TRACK 22 AUDIO
    TITLE "3:cjc157_5395"
    INDEX 01 00:21:62
  TRACK 23 AUDIO
    TITLE "0:"
    INDEX 01 00:22:68
  TRACK 24 AUDIO
    TITLE "4:cjc157_5396"
    INDEX 01 00:23:38
  TRACK 25 AUDIO
    TITLE "0:"
    INDEX 01 00:24:43
  TRACK 26 AUDIO
    TITLE "5:cjc157_5397"
    INDEX 01 00:25:15
  TRACK 27 AUDIO
    TITLE "0:"
    INDEX 01 00:27:67
  TRACK 28 AUDIO
    TITLE "3:cjc157_5398"
    INDEX 01 00:28:37
  TRACK 29 AUDIO
    TITLE "0:"
    INDEX 01 00:29:44
  TRACK 30 AUDIO
    TITLE "4:cjc157_5399"
    INDEX 01 00:30:18
  TRACK 31 AUDIO
    TITLE "0:"
    INDEX 01 00:31:14
  TRACK 32 AUDIO
    TITLE "5:cjc157_5400"
    INDEX 01 00:31:65
  TRACK 33 AUDIO
    TITLE "0:"
    INDEX 01 00:34:18
  TRACK 34 AUDIO
    TITLE "5:cjc157_5401"
    INDEX 01 00:34:71
  TRACK 35 AUDIO
    TITLE "0:"
    INDEX 01 00:38:10
  TRACK 36 AUDIO
    TITLE "5:cjc157_5402"
    INDEX 01 00:38:53
  TRACK 37 AUDIO
    TITLE "0:"
    INDEX 01 00:40:62
  TRACK 38 AUDIO
    TITLE "3:cjc157_5403"
    INDEX 01 00:41:45
  TRACK 39 AUDIO
    TITLE "0:"
    INDEX 01 00:42:74
  TRACK 40 AUDIO
    TITLE "4:cjc157_5404"
    INDEX 01 00:43:46
  TRACK 41 AUDIO
    TITLE "0:"
    INDEX 01 00:44:60
  TRACK 42 AUDIO
    TITLE "5:cjc157_5405"
    INDEX 01 00:45:26
  TRACK 43 AUDIO
    TITLE "0:"
    INDEX 01 00:48:04
  TRACK 44 AUDIO
    TITLE "3:cjc157_5406"
    INDEX 01 00:48:51
  TRACK 45 AUDIO
    TITLE "0:"
    INDEX 01 00:50:03
  TRACK 46 AUDIO
    TITLE "4:cjc157_5407"
    INDEX 01 00:50:48
  TRACK 47 AUDIO
    TITLE "0:"
    INDEX 01 00:51:52
  TRACK 48 AUDIO
    TITLE "5:cjc157_5408"
    INDEX 01 00:52:26
  TRACK 49 AUDIO
    TITLE "0:"
    INDEX 01 00:54:62
  TRACK 50 AUDIO
    TITLE "5:cjc157_5409"
    INDEX 01 00:55:32
  TRACK 51 AUDIO
    TITLE "0:"
    INDEX 01 00:59:49
  TRACK 52 AUDIO
    TITLE "3:cjc157_5410"
    INDEX 01 01:00:21
  TRACK 53 AUDIO
    TITLE "0:"
    INDEX 01 01:01:42
  TRACK 54 AUDIO
    TITLE "4:cjc157_5411"
    INDEX 01 01:02:10
  TRACK 55 AUDIO
    TITLE "0:"
    INDEX 01 01:03:26
  TRACK 56 AUDIO
    TITLE "5:cjc157_5412"
    INDEX 01 01:04:00
  TRACK 57 AUDIO
    TITLE "0:"
    INDEX 01 01:05:24
  TRACK 58 AUDIO
    TITLE "5:cjc157_5413"
    INDEX 01 01:05:73
  TRACK 59 AUDIO
    TITLE "0:"
    INDEX 01 01:07:45
  TRACK 60 AUDIO
    TITLE "3:cjc157_5414"
    INDEX 01 01:08:11
  TRACK 61 AUDIO
    TITLE "0:"
    INDEX 01 01:09:32
  TRACK 62 AUDIO
    TITLE "4:cjc157_5415"
    INDEX 01 01:10:04
  TRACK 63 AUDIO
    TITLE "0:"
    INDEX 01 01:11:37
  TRACK 64 AUDIO
    TITLE "5:cjc157_5416"
    INDEX 01 01:12:05
  TRACK 65 AUDIO
    TITLE "0:"
    INDEX 01 01:13:73
  TRACK 66 AUDIO
    TITLE "5:cjc157_5417"
    INDEX 01 01:14:45
  TRACK 67 AUDIO
    TITLE "0:"
    INDEX 01 01:17:02
  TRACK 68 AUDIO
    TITLE "5:cjc157_5418"
    INDEX 01 01:17:47
  TRACK 69 AUDIO
    TITLE "0:"
    INDEX 01 01:19:64
  TRACK 70 AUDIO
    TITLE "3:cjc157_5419"
    INDEX 01 01:20:48
  TRACK 71 AUDIO
    TITLE "0:"
    INDEX 01 01:21:55
  TRACK 72 AUDIO
    TITLE "4:cjc157_5420"
    INDEX 01 01:22:21
  TRACK 73 AUDIO
    TITLE "0:"
    INDEX 01 01:23:30
  TRACK 74 AUDIO
    TITLE "5:cjc157_5421"
    INDEX 01 01:24:02
  TRACK 75 AUDIO
    TITLE "0:"
    INDEX 01 01:26:74
